<svg xmlns="http://www.w3.org/2000/svg" version="1.1" xmlns:xlink="http://www.w3.org/1999/xlink" xmlns:svgjs="http://svgjs.dev/svgjs" width="1000" height="1000" viewBox="0 0 1000 1000"><rect width="1000" height="1000" fill="#f0cf90"></rect><g transform="matrix(0.7,0,0,0.7,149.5757596751522,288.66308964982807)"><svg viewBox="0 0 396 239" data-background-color="#f0cf90" preserveAspectRatio="xMidYMid meet" height="603" width="1000" xmlns="http://www.w3.org/2000/svg" xmlns:xlink="http://www.w3.org/1999/xlink"><g id="tight-bounds" transform="matrix(1,0,0,1,0.24000118765764,0.1632938837547755)"><svg viewBox="0 0 395.52 238.6742527315233" height="238.6742527315233" width="395.52"><g><svg viewBox="0 0 395.52 238.6742527315233" height="238.6742527315233" width="395.52"><g transform="matrix(1,0,0,1,0,152.89417605797567)"><svg viewBox="0 0 395.52 85.78007667354763" height="85.78007667354763" width="395.52"><g><svg viewBox="0 0 395.52 85.78007667354763" height="85.78007667354763" width="395.52"><g><svg viewBox="0 0 395.52 85.78007667354763" height="85.78007667354763" width="395.52"><g transform="matrix(1,0,0,1,0,0)"><svg width="395.52" viewBox="0.7500011920928955 -39.55000305175781 198.49853515625 40.05000305175781" height="85.78007667354763" data-palette-color="#000000"><svg></svg><g class="undefined-text-0" data-fill-palette-color="primary" id="text-0"><path xmlns="http://www.w3.org/2000/svg" d="M16.35 0v0c-0.533 0-0.99-0.193-1.37-0.58-0.387-0.38-0.58-0.837-0.58-1.37v0-37.1h3.9v37.1c0 0.533-0.183 0.99-0.55 1.37-0.367 0.387-0.833 0.58-1.4 0.58zM30.2-35.5h-27.65c-0.533 0-0.967-0.167-1.3-0.5-0.333-0.333-0.5-0.75-0.5-1.25v0c0-0.533 0.167-0.967 0.5-1.3 0.333-0.333 0.767-0.5 1.3-0.5v0h27.65c0.533 0 0.967 0.167 1.3 0.5 0.333 0.333 0.5 0.767 0.5 1.3v0c0 0.5-0.167 0.917-0.5 1.25-0.333 0.333-0.767 0.5-1.3 0.5zM48.25 0.5v0c-2.133 0-4.107-0.31-5.92-0.93-1.82-0.613-3.397-1.487-4.73-2.62-1.333-1.133-2.35-2.45-3.05-3.95v0c-0.267-0.533-0.277-1.023-0.03-1.47 0.253-0.453 0.68-0.763 1.28-0.93v0c0.467-0.133 0.923-0.083 1.37 0.15 0.453 0.233 0.797 0.583 1.03 1.05v0c0.5 0.967 1.233 1.833 2.2 2.6 0.967 0.767 2.117 1.357 3.45 1.77 1.333 0.42 2.8 0.63 4.4 0.63v0c1.767 0 3.333-0.293 4.7-0.88 1.367-0.58 2.44-1.43 3.22-2.55 0.787-1.113 1.18-2.47 1.18-4.07v0c0-2.033-0.75-3.783-2.25-5.25-1.5-1.467-3.85-2.4-7.05-2.8v0c-3.9-0.467-6.95-1.677-9.15-3.63-2.2-1.947-3.3-4.337-3.3-7.17v0c0-2.033 0.543-3.8 1.63-5.3 1.08-1.5 2.57-2.66 4.47-3.48 1.9-0.813 4.083-1.22 6.55-1.22v0c1.833 0 3.5 0.29 5 0.87 1.5 0.587 2.807 1.353 3.92 2.3 1.12 0.953 2.03 1.997 2.73 3.13v0c0.333 0.533 0.443 1.05 0.33 1.55-0.12 0.5-0.413 0.883-0.88 1.15v0c-0.5 0.233-1.007 0.267-1.52 0.1-0.52-0.167-0.913-0.483-1.18-0.95v0c-0.5-0.767-1.123-1.493-1.87-2.18-0.753-0.68-1.663-1.22-2.73-1.62-1.067-0.4-2.35-0.617-3.85-0.65v0c-2.633 0-4.75 0.557-6.35 1.67-1.6 1.12-2.4 2.747-2.4 4.88v0c0 1.133 0.3 2.173 0.9 3.12 0.6 0.953 1.593 1.77 2.98 2.45 1.38 0.687 3.237 1.197 5.57 1.53v0c4.167 0.6 7.257 1.873 9.27 3.82 2.02 1.953 3.03 4.497 3.03 7.63v0c0 1.8-0.323 3.4-0.97 4.8-0.653 1.4-1.57 2.573-2.75 3.52-1.187 0.953-2.57 1.68-4.15 2.18-1.587 0.5-3.28 0.75-5.08 0.75zM68.2 0v0c-0.533 0-0.993-0.193-1.38-0.58-0.38-0.38-0.57-0.837-0.57-1.37v0-35.15c0-0.567 0.183-1.033 0.55-1.4 0.367-0.367 0.833-0.55 1.4-0.55v0h23.45c0.567 0 1.033 0.173 1.4 0.52 0.367 0.353 0.55 0.813 0.55 1.38v0c0 0.5-0.183 0.933-0.55 1.3-0.367 0.367-0.833 0.55-1.4 0.55v0h-21.5v13.8h15.65c0.567 0 1.033 0.183 1.4 0.55 0.367 0.367 0.55 0.817 0.55 1.35v0c0 0.533-0.183 0.983-0.55 1.35-0.367 0.367-0.833 0.55-1.4 0.55v0h-15.65v15.75c0 0.533-0.183 0.99-0.55 1.37-0.367 0.387-0.833 0.58-1.4 0.58zM102.55 0v0c-0.567 0-1.033-0.183-1.4-0.55-0.367-0.367-0.55-0.833-0.55-1.4v0-35.15c0-0.567 0.183-1.033 0.55-1.4 0.367-0.367 0.833-0.55 1.4-0.55v0h10c2.467 0 4.65 0.54 6.55 1.62 1.9 1.087 3.383 2.58 4.45 4.48 1.067 1.9 1.6 4.1 1.6 6.6v0c0 2.433-0.533 4.59-1.6 6.47-1.067 1.887-2.55 3.37-4.45 4.45-1.9 1.087-4.083 1.63-6.55 1.63v0h-8.05v11.85c0 0.567-0.183 1.033-0.55 1.4-0.367 0.367-0.833 0.55-1.4 0.55zM104.5-35.3v17.75h8.05c1.7 0 3.217-0.377 4.55-1.13 1.333-0.747 2.373-1.787 3.12-3.12 0.753-1.333 1.13-2.85 1.13-4.55v0c0-1.767-0.377-3.317-1.13-4.65-0.747-1.333-1.787-2.383-3.12-3.15-1.333-0.767-2.85-1.15-4.55-1.15v0zM148.75 0.5v0c-2.7 0-5.227-0.517-7.58-1.55-2.347-1.033-4.413-2.477-6.2-4.33-1.78-1.847-3.17-3.98-4.17-6.4-1-2.413-1.5-5.003-1.5-7.77v0c0-2.733 0.49-5.31 1.47-7.73 0.987-2.413 2.37-4.537 4.15-6.37 1.787-1.833 3.857-3.277 6.21-4.33 2.347-1.047 4.887-1.57 7.62-1.57v0c2.4 0 4.583 0.35 6.55 1.05 1.967 0.7 3.867 1.817 5.7 3.35v0c0.3 0.233 0.473 0.507 0.52 0.82 0.053 0.32 0.013 0.62-0.12 0.9-0.133 0.287-0.333 0.497-0.6 0.63v0c-0.067 0.267-0.233 0.467-0.5 0.6-0.267 0.133-0.573 0.183-0.92 0.15-0.353-0.033-0.697-0.183-1.03-0.45v0c-1.3-1.133-2.717-1.973-4.25-2.52-1.533-0.553-3.317-0.83-5.35-0.83v0c-2.167 0-4.193 0.433-6.08 1.3-1.88 0.867-3.537 2.05-4.97 3.55-1.433 1.5-2.56 3.233-3.38 5.2-0.813 1.967-1.22 4.05-1.22 6.25v0c0 2.267 0.407 4.383 1.22 6.35 0.82 1.967 1.947 3.7 3.38 5.2 1.433 1.5 3.09 2.673 4.97 3.52 1.887 0.853 3.913 1.28 6.08 1.28v0c1.833 0 3.567-0.3 5.2-0.9 1.633-0.6 3.183-1.467 4.65-2.6v0c0.4-0.333 0.827-0.467 1.28-0.4 0.447 0.067 0.837 0.267 1.17 0.6 0.333 0.333 0.5 0.767 0.5 1.3v0c0 0.267-0.033 0.507-0.1 0.72-0.067 0.22-0.217 0.447-0.45 0.68v0c-1.7 1.567-3.6 2.673-5.7 3.32-2.1 0.653-4.283 0.98-6.55 0.98zM161.55-17.6v12.4l-3.8-0.8v-10.05h-7.8c-0.567 0-1.033-0.167-1.4-0.5-0.367-0.333-0.55-0.75-0.55-1.25v0c0-0.5 0.183-0.91 0.55-1.23 0.367-0.313 0.833-0.47 1.4-0.47v0h9.65c0.567 0 1.033 0.173 1.4 0.52 0.367 0.353 0.55 0.813 0.55 1.38zM167.6 0v0c-0.767 0-1.317-0.317-1.65-0.95-0.333-0.633-0.367-1.25-0.1-1.85v0l14.7-34.9c0.367-0.9 1-1.35 1.9-1.35v0c0.867 0 1.483 0.45 1.85 1.35v0l14.75 34.95c0.3 0.633 0.26 1.25-0.12 1.85-0.387 0.6-0.93 0.9-1.63 0.9v0c-0.4 0-0.76-0.1-1.08-0.3-0.313-0.2-0.57-0.5-0.77-0.9v0l-13.75-33.35h1.55l-13.85 33.35c-0.167 0.4-0.407 0.7-0.72 0.9-0.32 0.2-0.68 0.3-1.08 0.3zM194.2-9.3h-23.3l1.5-3.35h20.3z" fill="#000000" fill-rule="nonzero" stroke="none" stroke-width="1" stroke-linecap="butt" stroke-linejoin="miter" stroke-miterlimit="10" stroke-dasharray="" stroke-dashoffset="0" font-family="none" font-weight="none" font-size="none" text-anchor="none" style="mix-blend-mode: normal" data-fill-palette-color="primary" opacity="1"></path></g></svg></g></svg></g></svg></g></svg></g><g transform="matrix(1,0,0,1,14.436479999999989,0)"><svg viewBox="0 0 366.64704 134.0547515260264" height="134.0547515260264" width="366.64704"><g><svg xmlns="http://www.w3.org/2000/svg" xmlns:xlink="http://www.w3.org/1999/xlink" version="1.1" x="0" y="0" viewBox="3.425403356552124 32.28874969482422 92.56535339355469 33.84406280517578" style="enable-background:new 0 0 100 100;" xml:space="preserve" height="134.0547515260264" width="366.64704" class="icon-icon-0" data-fill-palette-color="accent" id="icon-0"><g fill="#000000" data-fill-palette-color="accent"><path d="M95.675 62.528c-0.706-1.135-2.174-0.886-3.35-0.687-0.725 0.123-1.545 0.265-1.812 0.006-0.245-0.234-0.775-0.716-1.44-1.319 0.072-0.738 0.139-2.756-1.14-3.755-0.243-0.19-0.543-0.452-0.881-0.746-1.58-1.376-3.707-3.232-5.449-2.941-0.601-0.589-1.178-1.111-1.414-1.322-0.956-3.291-1.763-7.18-1.416-7.827 0.134-0.25 0.294-0.401 0.475-0.451 0.297-0.083 0.61 0.104 0.61 0.104 0.064 0.041 0.138 0.066 0.214 0.074 0.286 0.031 2.818 0.294 3.661 0.209 0.404-0.039 1.348 0.539 2.034 1.098 0.154 0.125 0.363 0.148 0.54 0.06 0.17-0.085 1.028-0.543 1.249-1.232 0.09-0.281 0.065-0.566-0.07-0.812 0.001-0.119 0.281-0.444 0.432-0.619 0.377-0.439 0.847-0.986 0.588-1.595C87.919 39.306 87.5 38.555 87.19 38.172c0.285-0.591 0.254-1.083 0.163-1.414-0.202-0.729-0.854-1.348-1.939-1.839-5.921-2.678-6.907-2.646-7.225-2.627-1.001 0.037-10.216 1.141-12.67 2.748-1.018 0.666-1.778 1.429-2.45 2.102-0.831 0.833-1.488 1.492-2.245 1.569-0.14 0.013-14.669 0.916-23.066-4.139-6.288-3.787-12.481-0.891-16.58 1.025-1.283 0.6-2.39 1.118-3.258 1.335-2.941 0.734-7.156-0.417-9.676-1.105-0.649-0.178-1.186-0.323-1.56-0.4-1.634-0.336-2.585-0.034-3.09 0.974-0.23 0.46-0.225 1.053 0.014 1.512 0.213 0.411 0.593 0.677 1.068 0.748 0.167 0.025 0.694 0.188 1.303 0.377 2.12 0.656 6.064 1.878 9.188 1.879 1.593 0 4.35-0.888 7.269-1.828 3.847-1.238 9.047-2.913 10.022-1.706-0.297 0.427-0.663 0.933-1.06 1.482-1.737 2.404-3.092 4.346-3.672 5.716l-5.821 1.752c-0.019-0.016-0.033-0.027-0.054-0.046-0.752-0.681-1.73-1.008-2.684-0.901-4.819 0.552-6.948 0.528-7.305 0.34-0.721-0.389-1.752 0.03-2.302 0.316-1.342 0.694-2.87 2.132-3.056 3.647-0.197 1.604 0.218 2.27 0.576 2.554-0.052 0.063-0.095 0.135-0.112 0.221-0.031 0.158-0.283 1.566 0.443 2.236 0.306 0.282 0.877 0.359 1.407 0.36 0.146 0 0.289-0.006 0.422-0.015 1.258-0.084 3.044-0.565 3.936-1.643C14.245 52.113 15.121 51.5 17.208 51.5c0.781 0 1.503 0.057 2.141 0.106 1.038 0.08 1.873 0.13 2.556-0.066 2.324 1.677 6.087 3.855 7.386 3.527 1.037-0.266 5.386-2.013 9.323-4.557 0.516-0.071 2.95-0.408 3.896-0.555 0.67 0.014 4.526 2.211 7.078 3.664 2.085 1.188 3.885 2.214 4.646 2.513 0.274 0.108 1.492 0.234 3.138 0.234 3.414 0 8.659-0.55 11.157-2.926-0.047 1.242 0.125 2.595 1.009 3.01 0.84 0.394 3.546 0.496 6.732 0.582 0.92 0.025 1.863 0.05 2.122 0.086 2.834 1.804 7.539 5.319 7.546 5.319 0.389 0.389 3.763 3.696 5.986 3.696 0.071 0 0.141-0.003 0.21-0.011 1.349-0.137 3.122-0.703 3.683-1.847C96.008 63.889 96.137 63.271 95.675 62.528zM87.317 57.562c0.578 0.451 0.756 1.34 0.784 2.082-1.899-1.729-4.476-4.105-4.843-4.695-0.135-0.217-0.35-0.483-0.599-0.764 1.217 0.411 2.733 1.723 3.737 2.596C86.749 57.089 87.063 57.362 87.317 57.562zM27.431 45.714c-0.003 0.093-0.018 0.196-0.003 0.278-0.17 0.347-1.553 0.531-2.881 0.591L27.431 45.714zM19.427 50.609C18.771 50.558 18.028 50.5 17.208 50.5c-2.459 0-3.585 0.796-4.802 2.264-1.031 1.246-3.883 1.48-4.317 1.202C7.872 53.766 7.869 53.076 7.949 52.656c0.018-0.094 0.001-0.182-0.03-0.265 0.793-0.205 3.196-0.933 4.073-2.431 4.058-0.548 7.606-0.404 8.009-0.09 0.074 0.166 0.365 0.457 0.793 0.815C20.4 50.685 19.941 50.649 19.427 50.609zM69.962 55.544c-0.521-0.244-0.531-2.234-0.218-3.899 0.569-1.264 1.237-2.004 1.945-2.132 0.748-0.134 1.415 0.422 1.614 0.607 0.982 2.351 2.219 4.829 3.43 5.924-0.141-0.004-0.274-0.008-0.437-0.012C74.334 55.979 70.682 55.882 69.962 55.544zM94.92 63.835c-0.299 0.609-1.514 1.152-2.888 1.293-1.334 0.122-4.002-2.015-5.44-3.445-0.225-0.169-4.909-3.669-7.756-5.468 0 0 0 0 0 0s0 0 0 0c-0.409-0.258-0.78-0.482-1.095-0.655-1.906-1.052-4.537-8.239-5.389-10.92-0.083-0.263-0.365-0.409-0.628-0.325-0.264 0.084-0.409 0.365-0.326 0.628 0.122 0.383 0.607 1.882 1.303 3.684-0.353-0.115-0.749-0.177-1.18-0.1-1.127 0.198-2.074 1.204-2.816 2.989-1.807 4.343-13.247 3.989-14.105 3.686-0.694-0.273-2.551-1.331-4.517-2.451-5.07-2.889-6.979-3.897-7.701-3.787-0.447 0.069-1.209 0.178-1.95 0.283 1.299-0.973 2.481-2.028 3.375-3.143 0.173-0.216 0.138-0.53-0.078-0.703-0.215-0.171-0.53-0.138-0.703 0.078-3.508 4.375-12.159 8.152-13.984 8.62-1.262 0.325-7.653-3.89-8.126-4.636-0.723-1.624-9.233-0.47-9.319-0.458-0.171 0.024-0.318 0.136-0.389 0.294-0.494 1.125-2.563 1.869-3.538 2.123C7.563 51.288 7.365 50.885 7.496 49.811c0.134-1.092 1.4-2.299 2.524-2.881 0.792-0.411 1.242-0.391 1.368-0.323 0.258 0.139 1.04 0.559 7.893-0.228 0.678-0.077 1.352 0.154 1.898 0.649 0.116 0.105 0.22 0.179 0.322 0.249 0.007 0.006 0.013 0.011 0.021 0.016 0.14 0.092 0.273 0.161 0.398 0.192 0.37 0.094 4.978 0.375 6.16-0.727 0.273-0.254 0.39-0.584 0.329-0.928-0.024-0.137 0.021-0.34 0.108-0.585 0.023-0.039 0.035-0.083 0.047-0.126 0.566-1.407 2.507-4.094 3.644-5.668 0.483-0.668 0.92-1.274 1.247-1.754 0.09-0.132 0.111-0.299 0.057-0.449-0.894-2.487-5.988-0.848-11.382 0.889-2.843 0.915-5.527 1.779-6.963 1.78-2.972 0-6.823-1.193-8.892-1.834-0.816-0.252-1.219-0.375-1.451-0.411-0.159-0.023-0.263-0.094-0.329-0.22-0.102-0.196-0.08-0.458-0.006-0.603 0.144-0.289 0.387-0.771 1.994-0.443 0.359 0.074 0.874 0.215 1.498 0.385 2.614 0.714 6.989 1.912 10.182 1.11 0.961-0.24 2.109-0.777 3.438-1.398 4.14-1.936 9.807-4.586 15.641-1.075 7.86 4.733 21.356 4.515 23.684 4.278 1.112-0.114 1.918-0.923 2.851-1.858 0.637-0.638 1.358-1.362 2.288-1.971 2.146-1.405 10.993-2.542 12.162-2.586 0.357-0.019 1.64 0.216 6.775 2.54 0.79 0.357 1.27 0.77 1.387 1.193 0.08 0.289-0.007 0.62-0.258 0.983-0.111 0.16-0.118 0.371-0.02 0.538 0.064 0.109 0.166 0.188 0.284 0.225 0.247 0.267 0.797 1.409 1.181 2.356-0.009 0.115-0.265 0.412-0.417 0.59-0.385 0.448-0.911 1.061-0.555 1.778-0.047 0.146-0.264 0.338-0.482 0.485-0.555-0.416-1.703-1.184-2.49-1.102-0.598 0.064-2.537-0.113-3.355-0.197-0.223-0.111-0.719-0.31-1.279-0.162-0.317 0.084-0.768 0.316-1.105 0.946-0.708 1.32 0.875 7.007 1.378 8.719 0.026 0.091 0.078 0.172 0.148 0.234 0.669 0.589 2.509 2.287 2.989 3.061 0.465 0.746 3.063 3.131 5.913 5.717 0.695 0.631 1.248 1.133 1.5 1.374 0.631 0.604 1.668 0.427 2.671 0.258 1.162-0.196 2.008-0.294 2.333 0.229C95.064 63.44 94.994 63.685 94.92 63.835z" fill="#000000" data-fill-palette-color="accent"></path></g></svg></g></svg></g><g></g></svg></g><defs></defs></svg><rect width="395.52" height="238.6742527315233" fill="none" stroke="none" visibility="hidden"></rect></g></svg></g></svg>